<svg xmlns="http://www.w3.org/2000/svg" viewBox="0 0 500 500"><defs><radialGradient id="g" cx="32%" cy="28%"><stop stop-color="#ead8c8"/><stop offset=".45" stop-color="#b99178"/><stop offset="1" stop-color="#554047"/></radialGradient></defs><circle cx="250" cy="250" r="205" fill="url(#g)"/><path d="M100 245c70-70 160-90 270-50 35 13 60 30 75 48-85-5-145 20-210 60-55 34-91 27-135-5z" fill="#765866" opacity=".65"/><path d="M150 155c55-50 115-65 185-43-35 18-60 43-78 73-42-15-72-22-107-30z" fill="#f1e0d0" opacity=".7"/><circle cx="170" cy="290" r="28" fill="#5c4a51" opacity=".65"/><circle cx="170" cy="290" r="12" fill="#b99a8c"/><circle cx="330" cy="175" r="17" fill="#624b55" opacity=".6"/><circle cx="300" cy="330" r="24" fill="#604a54" opacity=".5"/><circle cx="380" cy="275" r="12" fill="#5d4850" opacity=".55"/></svg>